<?xml version="1.0" encoding="utf-8"?>
<!-- Generator: Adobe Illustrator 25.4.1, SVG Export Plug-In . SVG Version: 6.00 Build 0)  -->
<svg version="1.1" id="Layer_1" xmlns="http://www.w3.org/2000/svg" xmlns:xlink="http://www.w3.org/1999/xlink" x="0px" y="0px"
	 viewBox="0 0 50 50" style="enable-background:new 0 0 50 50;" xml:space="preserve">
<g>
	<g>
		<path d="M8.57,36.17c-1.32,0-2.55-0.3-3.68-0.9c-1.13-0.6-2.04-1.41-2.71-2.44c-0.67-1.03-1.01-2.19-1.01-3.47
			c0-1.59,0.44-2.88,1.31-3.86s2.25-1.71,4.12-2.19c1.87-0.48,4.28-0.71,7.22-0.71h3.68l-0.41,2.85h-2.85
			c-2.12,0-3.79,0.11-5.04,0.32c-1.24,0.21-2.12,0.59-2.65,1.13c-0.52,0.54-0.78,1.27-0.78,2.19c0,1.23,0.41,2.16,1.22,2.81
			c0.81,0.64,1.79,0.97,2.92,0.97c1.04,0,2.01-0.23,2.9-0.69c0.89-0.46,1.65-1.13,2.28-2c0.63-0.87,1.04-1.92,1.22-3.15l0.87-5.52
			c0.28-1.63,0.05-2.87-0.67-3.73c-0.72-0.86-2-1.29-3.84-1.29c-1.07,0-2.11,0.11-3.1,0.32c-1,0.21-2,0.58-3.01,1.1
			c-0.46,0.25-0.89,0.33-1.29,0.25c-0.4-0.08-0.72-0.25-0.97-0.51c-0.25-0.26-0.38-0.57-0.41-0.94c-0.03-0.37,0.07-0.74,0.3-1.1
			s0.62-0.69,1.17-0.97c1.23-0.61,2.53-1.06,3.91-1.33c1.38-0.28,2.7-0.41,3.96-0.41c2.24,0,4.01,0.41,5.31,1.24
			c1.3,0.83,2.19,1.98,2.67,3.45c0.48,1.47,0.56,3.17,0.25,5.11L19.7,33.77c-0.09,0.77-0.36,1.34-0.81,1.72
			c-0.44,0.38-1.02,0.58-1.72,0.58c-0.68,0-1.18-0.22-1.52-0.67c-0.34-0.44-0.44-1.08-0.32-1.91l0.51-3.36l0.37,0.69
			c-0.4,1.2-1,2.2-1.82,3.01c-0.81,0.81-1.72,1.4-2.71,1.77C10.68,35.98,9.65,36.17,8.57,36.17z"/>
		<path d="M26.74,44.35c-0.74,0-1.27-0.23-1.61-0.69c-0.34-0.46-0.44-1.12-0.32-1.98L29,15.37c0.12-0.8,0.41-1.4,0.85-1.79
			c0.44-0.4,1.05-0.6,1.82-0.6c0.71,0,1.22,0.24,1.54,0.71c0.32,0.48,0.41,1.14,0.25,2L33,18.78l-0.23-0.97
			c0.83-1.56,1.95-2.78,3.36-3.63c1.41-0.86,3.04-1.29,4.88-1.29c1.72,0,3.22,0.39,4.51,1.17c1.29,0.78,2.28,1.89,2.99,3.33
			c0.71,1.44,1.06,3.16,1.06,5.15c0,2.48-0.44,4.76-1.31,6.83s-2.16,3.72-3.84,4.95c-1.69,1.23-3.71,1.84-6.07,1.84
			c-1.78,0-3.35-0.43-4.71-1.29c-1.37-0.86-2.31-2.16-2.83-3.91h0.37l-1.79,11.18c-0.12,0.77-0.39,1.33-0.8,1.68
			C28.14,44.18,27.54,44.35,26.74,44.35z M37.6,32.58c1.56,0,2.88-0.44,3.96-1.33s1.89-2.08,2.46-3.57
			c0.57-1.49,0.85-3.13,0.85-4.94c0-2.02-0.49-3.56-1.47-4.62s-2.33-1.59-4.05-1.59c-1.53,0-2.84,0.44-3.93,1.31
			c-1.09,0.87-1.92,2.05-2.51,3.54c-0.58,1.49-0.88,3.15-0.88,4.99c0,1.99,0.49,3.53,1.47,4.6C34.48,32.04,35.85,32.58,37.6,32.58z"
			/>
	</g>
</g>
</svg>
